<?xml version="1.0" standalone="no"?>
<!DOCTYPE svg PUBLIC "-//W3C//DTD SVG 20010904//EN"
 "http://www.w3.org/TR/2001/REC-SVG-20010904/DTD/svg10.dtd">
<svg version="1.0" xmlns="http://www.w3.org/2000/svg"
 width="1080.000000pt" height="1080.000000pt" viewBox="0 0 1080.000000 1080.000000"
 preserveAspectRatio="xMidYMid meet">
<metadata>
Created by potrace 1.11, written by Peter Selinger 2001-2013
</metadata>
<g transform="translate(0.000000,1080.000000) scale(0.100000,-0.100000)"
fill="#000000" stroke="none">
<path d="M5125 10784 c-452 -34 -674 -68 -1025 -154 -705 -175 -1350 -480
-1936 -917 -393 -294 -794 -694 -1088 -1088 -543 -725 -893 -1572 -1020 -2466
-41 -285 -51 -436 -51 -764 0 -174 6 -371 13 -450 105 -1138 518 -2137 1247
-3020 134 -162 489 -517 654 -654 654 -544 1375 -911 2181 -1111 463 -114 803
-154 1300 -154 497 0 837 40 1300 154 705 175 1350 480 1936 917 393 294 794
694 1088 1088 543 725 893 1572 1020 2466 41 285 51 436 51 764 0 174 -6 371
-13 450 -105 1138 -518 2137 -1247 3020 -134 162 -489 517 -654 654 -873 727
-1861 1137 -3011 1251 -107 11 -654 21 -745 14z m2192 -2754 c566 -73 1043
-253 1467 -554 181 -128 435 -396 573 -601 73 -110 159 -291 208 -440 83 -251
101 -616 44 -880 -49 -223 -128 -413 -251 -600 -87 -133 -137 -196 -269 -337
-295 -314 -717 -560 -1229 -715 -229 -70 -330 -92 -515 -113 -55 -6 -115 -14
-132 -16 l-33 -5 0 -645 0 -644 -447 2 -448 3 -5 2230 -5 2230 -41 -55 c-45
-60 -134 -184 -629 -870 -181 -250 -405 -561 -498 -690 -94 -129 -220 -305
-282 -390 -246 -341 -317 -435 -329 -435 -7 0 -165 171 -351 380 -186 209
-356 400 -379 426 -52 57 -167 186 -592 664 -185 209 -418 471 -518 583 -99
111 -183 202 -187 202 -16 0 -21 -99 -16 -303 7 -251 25 -420 62 -582 8 -38
20 -92 25 -120 14 -70 88 -313 110 -360 5 -11 23 -55 40 -98 112 -289 324
-634 540 -882 97 -111 292 -304 386 -381 226 -187 553 -385 799 -484 44 -17
89 -35 100 -40 39 -16 161 -58 240 -82 l80 -24 3 -462 c2 -398 0 -462 -12
-462 -8 0 -52 9 -98 21 -46 11 -99 24 -118 29 -90 21 -307 88 -355 109 -11 5
-54 22 -95 37 -41 15 -79 30 -85 34 -5 4 -21 11 -35 15 -14 4 -88 38 -165 75
-756 366 -1371 940 -1787 1665 -88 154 -193 367 -235 480 -8 22 -21 54 -28 70
-12 27 -85 244 -119 355 -8 25 -20 70 -26 100 -7 30 -16 66 -21 80 -8 24 -23
95 -39 190 -50 288 -59 373 -67 685 -12 483 52 909 210 1393 43 132 58 157 91
148 12 -3 226 -6 476 -6 l456 0 11 -27 c6 -16 49 -75 95 -133 68 -84 1264
-1581 1492 -1868 32 -40 62 -72 67 -70 5 2 293 428 640 948 347 520 676 1011
731 1093 l99 147 622 0 c559 0 637 -2 774 -20z"/>
<path d="M7180 5905 l0 -1415 23 0 c12 0 85 14 162 31 77 17 151 33 165 36 14
3 30 9 35 13 6 5 62 27 125 50 150 56 341 154 460 238 127 89 301 264 374 374
192 291 263 588 207 868 -38 188 -90 311 -207 485 -109 162 -211 264 -394 395
-76 55 -332 191 -392 209 -18 5 -60 19 -93 31 -112 41 -364 100 -427 100 l-38
0 0 -1415z"/>
</g>
</svg>
